<svg clip-rule="evenodd" fill-rule="evenodd" stroke-linejoin="round" stroke-miterlimit="2" viewBox="0 0 3334 3334" xmlns="http://www.w3.org/2000/svg"><path d="m3249.91 1666.67-1583.24-1583.24-1583.24 1583.24 1583.24 1583.24z" fill="#e20056"/><path d="m2786.19 2786.19v-2239.04h-2239.04v2239.04z" fill="#e20056"/><path d="m2333.42 3096.55 765.797-2104.01-2104.01-765.796-765.796 2104.01 2104.01 765.796z" fill="#e20056"/><path d="m3101.08 2336.82-764.257-2104.57-2104.57 764.258 764.258 2104.57 2104.57-764.257z" fill="#e20056"/><g fill="#fff" fill-rule="nonzero"><path d="m714.304 1386.97c-7.585 0-14.637-1.482-21.156-4.445-6.518-2.963-12.267-7.407-17.244-13.333-4.978-5.926-8.889-13.334-11.734-22.223-2.844-8.889-4.266-19.14-4.266-30.755 0-9.008.829-17.245 2.488-24.712 1.66-7.466 3.675-14.104 6.045-19.911s4.978-10.726 7.822-14.756c2.845-4.029 5.334-7.229 7.467-9.6h210.846c7.348 10.667 12.563 22.341 15.645 35.023 3.081 12.681 4.622 25.185 4.622 37.511 0 14.223-1.719 27.2-5.156 38.934-3.437 11.733-7.526 21.274-12.267 28.622h-14.577v106.668c-9.245 8.059-19.793 15.763-31.645 23.111s-25.304 13.808-40.356 19.378-31.941 10.015-50.667 13.333c-18.726 3.319-39.467 4.978-62.223 4.978-22.044 0-43.615-2.015-64.711-6.044-21.097-4.03-41.008-10.252-59.734-18.667s-35.912-19.082-51.556-32c-15.645-12.919-29.156-28.267-40.534-46.045s-20.207-38.104-26.489-60.978c-6.281-22.875-9.422-48.534-9.422-76.979 0-39.822 6.104-74.726 18.311-104.712 12.208-29.985 29.274-55.052 51.201-75.2 21.926-20.149 48.118-35.319 78.578-45.512 30.459-10.192 64.06-15.289 100.801-15.289 19.2 0 37.926 1.6 56.178 4.8s35.319 7.467 51.2 12.8c15.882 5.334 30.341 11.497 43.378 18.489 13.037 6.993 24.06 14.401 33.067 22.223 0 7.822-.474 16.356-1.422 25.6-.948 9.245-2.193 18.43-3.733 27.556-1.541 9.126-3.437 17.778-5.689 25.956-2.252 8.177-4.682 14.992-7.289 20.444h-187.379c-2.845 3.082-6.104 7.23-9.778 12.445s-7.111 11.437-10.311 18.667c-3.2 7.229-5.926 15.526-8.178 24.889s-3.378 19.733-3.378 31.111c0 14.459 1.837 26.963 5.511 37.511 3.674 10.549 8.533 19.319 14.578 26.312 6.044 6.992 13.037 12.207 20.978 15.644s16.178 5.156 24.711 5.156c4.267 0 7.23-.771 8.889-2.311 1.659-1.541 2.489-3.378 2.489-5.511v-8.178z"/><path d="m991.639 1154.79c14.697 0 26.964 2.371 36.801 7.111 9.837 4.741 17.6 11.378 23.289 19.912-3.082 3.318-5.986 7.348-8.711 12.089-2.726 4.74-5.097 9.422-7.112 14.044-2.014 4.622-3.614 9.008-4.8 13.156-1.185 4.148-1.777 7.407-1.777 9.778 0 2.844 1.066 5.392 3.2 7.644 2.133 2.252 5.451 3.378 9.955 3.378 4.504-17.541 10.845-32.237 19.023-44.089 8.177-11.852 17.54-21.334 28.089-28.445 10.548-7.111 21.926-12.148 34.133-15.111 12.208-2.963 24.593-4.445 37.156-4.445 10.193 0 19.556.652 28.089 1.956 8.534 1.304 16.237 3.022 23.111 5.156 6.875 2.133 12.919 4.563 18.134 7.288 5.215 2.726 9.6 5.393 13.156 8.001 3.792 9.955 6.518 20.503 8.177 31.644 1.66 11.141 2.489 22.045 2.489 32.712 0 19.2-1.718 35.2-5.155 48s-7.171 23.348-11.2 31.645c-3.793 1.896-8.534 3.792-14.223 5.689-5.689 1.896-11.911 3.555-18.666 4.977-6.756 1.423-13.927 2.549-21.512 3.378-7.585.83-15.052 1.245-22.4 1.245-7.822 0-14.756-.237-20.8-.712-6.045-.474-11.556-1.125-16.534-1.955-4.977-.83-9.54-1.778-13.689-2.845-4.148-1.066-8.355-2.074-12.622-3.022-1.896 1.897-2.844 4.622-2.844 8.178 0 3.319 2.192 5.926 6.578 7.822 4.385 1.897 12.266 3.911 23.644 6.045v178.49c-8.059 5.215-16.237 9.422-24.533 12.622-8.297 3.2-16.415 5.689-24.356 7.467s-15.526 2.963-22.756 3.556c-7.23.592-13.926.889-20.089.889-13.274 0-25.719-1.245-37.334-3.734-11.614-2.489-21.748-6.281-30.4-11.378-8.652-5.096-15.467-11.555-20.444-19.378-4.978-7.822-7.467-17.185-7.467-28.089v-183.112c-7.111-9.956-12.385-21.215-15.822-33.778s-5.156-25.719-5.156-39.467c0-11.378 1.719-23.941 5.156-37.689 3.437-13.749 8.711-25.956 15.822-36.623z"/><path d="m1459.55 1554.43c-27.734 0-53.749-4.267-78.045-12.8-24.297-8.534-45.393-21.452-63.289-38.756-17.897-17.304-32.06-38.875-42.49-64.712-10.429-25.837-15.644-56.06-15.644-90.667 0-31.289 4.859-59.556 14.578-84.801 9.718-25.245 23.348-46.756 40.889-64.534s38.519-31.407 62.934-40.889c24.415-9.481 51.437-14.222 81.067-14.222s56.652 5.096 81.067 15.289c24.415 10.192 45.334 24.474 62.756 42.845 17.423 18.37 30.934 40.296 40.534 65.778 9.6 25.481 14.4 53.393 14.4 83.734 0 31.289-4.504 59.497-13.511 84.623-9.008 25.126-22.045 46.518-39.112 64.178-17.066 17.659-37.926 31.23-62.578 40.711-24.652 9.482-52.504 14.223-83.556 14.223zm-8.178-146.846c1.659 1.659 4.148 2.489 7.467 2.489 4.504 0 7.526-1.363 9.067-4.089 1.54-2.726 2.311-7.17 2.311-13.333v-50.845c0-10.667-.178-19.674-.534-27.023-.355-7.348-1.126-13.392-2.311-18.133s-2.666-7.822-4.444-9.245c-1.778-1.422-3.852-2.133-6.222-2.133-2.134 0-3.852.356-5.156 1.067s-2.43 1.54-3.378 2.489l2.133 21.866c.238 4.149.475 9.008.712 14.578.237 5.571.355 12.267.355 20.089z"/><path d="m1872 1554.43c-27.734 0-53.749-4.267-78.045-12.8-24.297-8.534-45.393-21.452-63.29-38.756-17.896-17.304-32.059-38.875-42.489-64.712s-15.645-56.06-15.645-90.667c0-31.289 4.86-59.556 14.578-84.801 9.719-25.245 23.349-46.756 40.889-64.534 17.541-17.778 38.519-31.407 62.934-40.889 24.415-9.481 51.438-14.222 81.068-14.222 29.629 0 56.652 5.096 81.067 15.289 24.415 10.192 45.334 24.474 62.756 42.845 17.422 18.37 30.933 40.296 40.533 65.778 9.601 25.481 14.401 53.393 14.401 83.734 0 31.289-4.504 59.497-13.512 84.623-9.007 25.126-22.044 46.518-39.111 64.178-17.067 17.659-37.926 31.23-62.578 40.711-24.652 9.482-52.504 14.223-83.556 14.223zm-8.178-146.846c1.659 1.659 4.148 2.489 7.466 2.489 4.504 0 7.526-1.363 9.067-4.089s2.311-7.17 2.311-13.333v-50.845c0-10.667-.177-19.674-.533-27.023-.356-7.348-1.126-13.392-2.311-18.133s-2.667-7.822-4.445-9.245c-1.777-1.422-3.852-2.133-6.222-2.133-2.133 0-3.852.356-5.156 1.067-1.303.711-2.429 1.54-3.377 2.489l2.133 21.866c.237 4.149.474 9.008.711 14.578.237 5.571.356 12.267.356 20.089z"/><path d="m2395.03 1485.46c-6.637 14.46-14.519 25.956-23.645 34.489-9.126 8.534-19.2 14.993-30.222 19.378-11.023 4.386-22.815 7.23-35.378 8.534s-25.719 1.955-39.467 1.955c-8.297 0-16.712-.355-25.245-1.066s-16.83-1.719-24.889-3.023c-8.059-1.303-15.526-2.785-22.4-4.444s-12.8-3.556-17.778-5.689c-16.119-32.948-31.23-68.208-45.334-105.779-14.104-37.57-27.319-79.941-39.645-127.112-3.555-3.555-6.933-7.881-10.133-12.977-3.2-5.097-6.044-10.786-8.533-17.067-2.489-6.282-4.445-12.978-5.867-20.089s-2.133-14.46-2.133-22.045c0-13.037 1.659-26.074 4.977-39.111 3.319-13.037 8.771-25.245 16.356-36.623h88.534c17.067 0 31.171 2.43 42.311 7.289 11.141 4.859 20.09 11.259 26.845 19.2 6.756 7.941 11.793 16.949 15.111 27.023 3.319 10.074 5.689 20.326 7.112 30.755-.712 6.401-1.482 14.638-2.312 24.712-.829 10.074-1.6 21.037-2.311 32.889s-1.303 24.059-1.778 36.622c-.474 12.563-.711 24.652-.711 36.267v8.712c0 2.963.119 5.748.356 8.355 2.607 1.185 5.333 1.778 8.178 1.778 6.874 0 10.311-4.622 10.311-13.867 0-6.874.237-15.704.711-26.489s1.126-22.519 1.956-35.2c.829-12.682 1.777-25.778 2.844-39.289 1.067-13.512 2.133-26.549 3.2-39.112s2.074-24.118 3.022-34.667c.949-10.548 1.778-19.141 2.489-25.778 8.771-5.926 19.852-11.141 33.245-15.644 13.393-4.504 28.03-6.756 43.911-6.756 17.541 0 32.534 2.252 44.979 6.756 12.444 4.503 22.577 10.607 30.4 18.311 7.822 7.704 13.57 16.593 17.244 26.667s5.511 20.8 5.511 32.178c0 6.163-.592 14.104-1.777 23.822-1.185 9.719-2.845 18.726-4.978 27.023-4.267 16.355-9.067 33.718-14.4 52.089-5.334 18.371-10.845 36.504-16.534 54.4-5.689 17.897-11.496 34.904-17.422 51.023s-11.496 29.985-16.711 41.6z"/><path d="m2591.65 1154.79c16.83 0 30.756 2.43 41.779 7.289 11.022 4.859 19.911 11.2 26.666 19.022 6.756 7.823 11.734 16.712 14.934 26.667 3.2 9.956 5.392 20.149 6.578 30.578-.711 5.452-1.541 12.741-2.489 21.867s-1.837 19.319-2.667 30.578c-.83 11.26-1.481 23.171-1.955 35.734-.475 12.563-.712 25.007-.712 37.333v8.356c0 2.963.119 5.63.356 8 1.422.711 2.785 1.185 4.089 1.422s2.548.356 3.733.356c3.793 0 6.46-1.422 8-4.267 1.541-2.844 2.311-6.637 2.311-11.378 0-19.911.593-39.644 1.778-59.2s2.667-37.986 4.445-55.289c1.777-17.304 3.792-32.949 6.044-46.934s4.326-25.363 6.222-34.134c10.43-7.585 22.223-12.978 35.378-16.178 13.156-3.2 27.556-4.8 43.201-4.8 16.355 0 30.696 1.837 43.022 5.512 12.326 3.674 22.578 8.474 30.756 14.4s14.341 12.681 18.489 20.266c4.148 7.586 6.222 15.408 6.222 23.467 0 1.423-.474 6.104-1.422 14.045s-2.429 18.43-4.444 31.467-4.504 28.267-7.467 45.689-6.519 36.089-10.667 56c-4.148 19.912-8.77 40.83-13.867 62.756-5.096 21.927-10.726 44.03-16.889 66.312-10.429 37.452-23.052 67.971-37.866 91.556-14.815 23.586-31.053 42.075-48.712 55.467-17.659 13.393-36.208 22.578-55.645 27.556s-38.993 7.467-58.667 7.467c-20.148 0-37.571-2.548-52.267-7.645-14.696-5.096-26.845-11.97-36.445-20.622s-16.77-18.667-21.511-30.045-7.111-23.348-7.111-35.911c0-12.089 1.718-23.645 5.155-34.667 3.438-11.022 9.186-22.459 17.245-34.311 1.896-.474 4.445-.83 7.645-1.067s6.222-.356 9.066-.356c7.111 0 14.223.415 21.334 1.245 7.111.829 12.8 1.6 17.067 2.311l55.822 10.311c2.608.474 5.215.948 7.822 1.422 2.608.474 5.215.712 7.823.712 4.029 0 7.407-.83 10.133-2.489 2.726-1.66 4.089-5.571 4.089-11.734l-83.912-16c-8.77-3.556-17.837-9.6-27.2-18.133-9.363-8.534-18.193-20.326-26.489-35.378s-15.822-33.838-22.578-56.356c-6.756-22.519-11.911-49.423-15.467-80.712-6.4-8.297-11.911-18.548-16.533-30.756-4.622-12.207-6.934-25.896-6.934-41.067 0-13.037 1.66-26.074 4.978-39.111 3.319-13.037 8.771-25.245 16.356-36.623z"/><path d="m494.036 1714.54c0-5.452 4.444-11.556 13.333-18.312 8.889-6.755 21.748-13.096 38.578-19.022s37.393-10.904 61.689-14.933c24.297-4.03 51.734-6.045 82.312-6.045 37.689 0 69.808 3.733 96.356 11.2 26.549 7.467 48.179 17.482 64.89 30.045s28.919 27.082 36.622 43.556c7.704 16.474 11.556 33.719 11.556 51.733 0 6.875-.593 13.808-1.778 20.801-1.185 6.992-2.963 13.689-5.333 20.089-2.371 6.4-5.393 12.385-9.067 17.955-3.674 5.571-7.881 10.134-12.622 13.689-6.637-3.318-13.156-5.748-19.556-7.289-6.4-1.54-11.97-2.311-16.711-2.311-4.978 0-9.008.948-12.089 2.845-3.082 1.896-4.622 5.926-4.622 12.089 18.489.711 34.489 4.503 48 11.378 13.511 6.874 24.652 15.703 33.422 26.489 8.771 10.785 15.289 23.111 19.556 36.978s6.4 28.267 6.4 43.2c0 25.6-5.333 47.289-16 65.067s-26.133 32.178-46.4 43.201c-20.267 11.022-45.156 19.022-74.668 24-29.511 4.978-63.111 7.466-100.8 7.466-27.023 0-50.371-.414-70.045-1.244s-36.623-2.193-50.845-4.089c-25.126-3.318-43.437-11.319-54.934-24-11.496-12.682-17.244-32.178-17.244-58.489zm193.068 136.89c.711.474 1.837.77 3.378.888 1.54.119 2.548.178 3.022.178 5.689 0 9.718-1.778 12.089-5.333 2.37-3.556 3.555-9.363 3.555-17.422v-2.134c0-8.296-1.007-14.341-3.022-18.133-2.015-3.793-5.748-5.689-11.2-5.689-1.185 0-2.607.118-4.267.355-1.659.237-2.963.593-3.911 1.067.237 1.896.356 3.911.356 6.045zm0 134.045c.711.474 1.837.77 3.378.889 1.54.118 2.548.178 3.022.178 5.689 0 9.718-1.482 12.089-4.445 2.37-2.963 3.555-8.474 3.555-16.533v-6.756c0-8.296-1.007-14.459-3.022-18.489s-5.748-6.044-11.2-6.044c-1.185 0-2.607.118-4.267.355-1.659.237-2.963.593-3.911 1.067.237 1.896.356 3.911.356 6.044z"/><path d="m999.995 1735.88c14.696 0 26.963 2.371 36.8 7.111 9.837 4.741 17.6 11.378 23.289 19.912-3.081 3.318-5.985 7.348-8.711 12.089-2.726 4.74-5.096 9.422-7.111 14.044s-3.615 9.008-4.8 13.156-1.778 7.407-1.778 9.778c0 2.844 1.067 5.392 3.2 7.644 2.134 2.252 5.452 3.378 9.956 3.378 4.504-17.541 10.844-32.237 19.022-44.089s17.541-21.334 28.089-28.445 21.926-12.148 34.134-15.111c12.207-2.963 24.593-4.445 37.156-4.445 10.192 0 19.555.652 28.089 1.956 8.533 1.304 16.237 3.022 23.111 5.156 6.874 2.133 12.919 4.563 18.134 7.288 5.214 2.726 9.6 5.393 13.155 8.001 3.793 9.955 6.519 20.503 8.178 31.644s2.489 22.045 2.489 32.712c0 19.2-1.719 35.2-5.156 48s-7.17 23.348-11.2 31.645c-3.792 1.896-8.533 3.792-14.222 5.689-5.689 1.896-11.911 3.555-18.667 4.977-6.755 1.423-13.926 2.549-21.511 3.378-7.585.83-15.052 1.245-22.4 1.245-7.823 0-14.756-.237-20.8-.712-6.045-.474-11.556-1.125-16.534-1.955s-9.541-1.778-13.689-2.845c-4.148-1.066-8.356-2.074-12.622-3.022-1.897 1.897-2.845 4.622-2.845 8.178 0 3.319 2.193 5.926 6.578 7.822 4.385 1.897 12.267 3.911 23.645 6.045v178.49c-8.06 5.215-16.237 9.422-24.534 12.622-8.296 3.2-16.415 5.689-24.356 7.467-7.94 1.778-15.526 2.963-22.755 3.556-7.23.592-13.926.889-20.089.889-13.274 0-25.719-1.245-37.334-3.734s-21.748-6.281-30.4-11.378c-8.652-5.096-15.467-11.555-20.445-19.378-4.978-7.822-7.466-17.185-7.466-28.089v-183.112c-7.112-9.956-12.386-21.215-15.823-33.778s-5.155-25.719-5.155-39.467c0-11.378 1.718-23.941 5.155-37.689 3.437-13.749 8.711-25.956 15.823-36.623h54.4z"/><path d="m1431.64 1965.92c-5.452 0-9.304 1.363-11.556 4.089s-3.378 5.867-3.378 9.423c0 4.74 1.719 8.059 5.156 9.955s7.526 2.845 12.267 2.845c7.585 0 13.392-1.897 17.422-5.689 4.03-3.793 6.044-10.667 6.044-20.623zm184.534-17.422c0 16.356 1.778 29.867 5.334 40.534 3.555 10.666 10.311 19.081 20.267 25.244.237 1.897.355 4.208.355 6.934v6.222c0 18.015-2.844 33.541-8.533 46.578s-13.097 23.763-22.223 32.178-19.496 14.637-31.111 18.667-23.467 6.044-35.556 6.044c-8.533 0-16.889-1.007-25.067-3.022s-15.881-5.037-23.111-9.067c-7.23-4.029-13.748-9.185-19.556-15.466-5.807-6.282-10.37-13.689-13.689-22.223-4.029 0-7.052 1.067-9.066 3.2-2.015 2.134-3.023 4.978-3.023 8.534 0 3.318 1.067 6.874 3.2 10.666 2.134 3.793 5.215 7.704 9.245 11.734-7.585 5.215-17.778 9.126-30.578 11.733-12.8 2.608-25.837 3.911-39.112 3.911-21.57 0-41.185-2.963-58.844-8.889-17.66-5.926-32.83-14.696-45.512-26.311-12.681-11.615-22.519-25.778-29.511-42.489-6.993-16.711-10.489-35.971-10.489-57.778 0-22.519 3.733-42.015 11.2-58.49 7.467-16.474 17.6-30.104 30.4-40.889s27.674-18.785 44.623-24c16.948-5.215 34.904-7.822 53.867-7.822 8.533 0 16.118.296 22.756.889 6.637.592 12.326 1.244 17.066 1.955 5.452.948 10.074 1.896 13.867 2.845.711-2.371 1.067-4.386 1.067-6.045 0-3.081-1.6-5.689-4.8-7.822-3.2-2.134-7.408-3.734-12.623-4.8-5.214-1.067-11.259-1.837-18.133-2.311s-13.867-.711-20.978-.711c-16.119 0-32.237 1.777-48.356 5.333s-30.578 9.007-43.378 16.356c-5.215-8.771-9.422-19.912-12.622-33.423s-4.8-27.259-4.8-41.245c0-6.637.414-13.333 1.244-20.089.83-6.755 2.548-12.74 5.156-17.955 6.163-2.845 14.044-5.986 23.644-9.423s20.741-6.637 33.423-9.6c12.681-2.963 26.667-5.511 41.956-7.644 15.289-2.134 31.704-3.2 49.244-3.2 30.578 0 57.305 3.437 80.179 10.311s41.896 16.77 57.067 29.689c15.17 12.919 26.548 28.8 34.134 47.645 7.585 18.844 11.377 40.119 11.377 63.823z"/><path d="m2024.71 1945.3c0 16.356 1.778 30.4 5.333 42.134 3.556 11.733 10.311 20.681 20.267 26.844.237 1.897.356 4.208.356 6.934v6.222c0 18.015-2.845 33.541-8.534 46.578s-13.096 23.763-22.222 32.178-19.497 14.637-31.112 18.667c-11.614 4.03-23.466 6.044-35.555 6.044-8.534 0-16.889-.948-25.067-2.844s-15.882-4.859-23.112-8.889c-7.229-4.03-13.748-9.126-19.555-15.289-5.808-6.163-10.371-13.393-13.689-21.689-8.06 0-12.089 3.911-12.089 11.733 0 3.319 1.363 7.289 4.089 11.912 2.726 4.622 6.459 8.829 11.2 12.622-6.874 4.029-15.289 7.111-25.245 9.244-9.955 2.134-19.674 3.2-29.156 3.2-13.985 0-27.97-1.54-41.955-4.622-13.986-3.081-27.378-8-40.179-14.756-12.8-6.755-24.77-15.407-35.911-25.955-11.141-10.549-20.8-23.23-28.978-38.045s-14.637-31.823-19.378-51.023-7.111-41.007-7.111-65.422c0-31.052 4.622-58.667 13.867-82.845 9.244-24.178 21.985-44.564 38.222-61.156 16.237-16.593 35.438-29.215 57.601-37.867s46.044-12.978 71.645-12.978c18.015 0 33.778 1.778 47.289 5.333 13.511 3.556 25.008 7.704 34.489 12.445 1.185-1.186 2.133-2.549 2.845-4.089.711-1.541 1.066-2.904 1.066-4.089 0-3.793-2.429-7.23-7.289-10.311-4.859-3.082-11.022-5.749-18.489-8-7.466-2.252-15.704-4.03-24.711-5.334-9.008-1.304-17.541-1.955-25.6-1.955 0-4.504-.178-9.423-.534-14.756-.355-5.333-.948-10.548-1.777-15.645-.83-5.096-1.837-10.074-3.023-14.933-1.185-4.859-2.607-9.067-4.266-12.622 5.452-6.4 11.378-12.326 17.778-17.778s13.57-10.134 21.511-14.045 16.83-6.993 26.667-9.244c9.837-2.252 21.037-3.378 33.6-3.378 13.748 0 26.548 2.015 38.4 6.044 11.852 4.03 22.104 10.015 30.756 17.956s15.408 17.659 20.267 29.156c4.859 11.496 7.289 24.711 7.289 39.645zm-173.868-16.356c0-7.822.118-14.518.355-20.089.237-5.57.474-10.429.712-14.578.237-4.148.533-7.881.888-11.2.356-3.318.771-6.874 1.245-10.666-.948-.949-2.074-1.778-3.378-2.489-1.304-.712-3.022-1.067-5.156-1.067-2.37 0-4.444.711-6.222 2.133-1.778 1.423-3.259 4.504-4.444 9.245s-1.956 10.785-2.311 18.133c-.356 7.348-.534 16.356-.534 27.023v36.267c0 6.163.771 10.607 2.311 13.333 1.541 2.726 4.563 4.089 9.067 4.089 3.319 0 5.808-.83 7.467-2.489z"/><path d="m2234.49 2010.37c-.237.474-.474 1.304-.711 2.489s-.355 2.37-.355 3.556c0 4.977 3.614 8.414 10.844 10.311 7.23 1.896 16.889 2.844 28.978 2.844 17.541 0 34.726-1.481 51.556-4.444s31.171-6.934 43.023-11.911c14.222 3.792 26.192 9.54 35.911 17.244 9.718 7.704 17.659 16.415 23.822 26.134 6.163 9.718 10.608 20.148 13.334 31.289s4.089 22.163 4.089 33.067c0 22.518-4.978 42.43-14.934 59.734-9.955 17.303-23.881 31.822-41.778 43.555-17.896 11.734-39.289 20.623-64.178 26.667-24.889 6.045-52.149 9.067-81.779 9.067-29.629 0-55.526-2.785-77.689-8.356-22.163-5.57-40.652-13.155-55.467-22.755s-25.897-20.741-33.245-33.423c-7.348-12.681-11.022-26.252-11.022-40.711 0-6.4.77-12.504 2.311-18.311 1.541-5.808 3.556-11.201 6.045-16.178 2.488-4.978 5.333-9.304 8.533-12.978s6.578-6.46 10.133-8.356c11.141 9.482 28.089 17.422 50.845 23.823 22.756 6.4 50.371 9.6 82.845 9.6 18.015 0 30.46-.889 37.334-2.667s10.311-5.156 10.311-10.134c0-1.659-.237-3.022-.711-4.088-.474-1.067-.948-2.075-1.422-3.023-5.689 1.186-12.8 2.134-21.334 2.845-8.533.711-16.237 1.066-23.111 1.066-20.148 0-39.586-1.481-58.312-4.444s-35.259-8-49.6-15.111-25.837-16.415-34.489-27.912c-8.652-11.496-12.978-25.778-12.978-42.844 0-11.615 2.37-22.815 7.111-33.601 4.741-10.785 12.208-18.903 22.4-24.355-5.452-3.319-10.963-7.763-16.533-13.334-5.571-5.57-10.608-12.385-15.111-20.444-4.504-8.06-8.178-17.304-11.023-27.734-2.844-10.43-4.266-22.282-4.266-35.556 0-23.23 4.622-43.97 13.866-62.222 9.245-18.252 22.045-33.66 38.401-46.223 16.355-12.563 35.793-22.163 58.311-28.8 22.519-6.637 47.052-9.956 73.601-9.956 15.17 0 29.274 1.363 42.311 4.089s24.297 5.748 33.778 9.067v-24.889c5.452-2.134 12.86-4.03 22.223-5.689s19.615-2.489 30.755-2.489c11.141 0 21.452.83 30.934 2.489s17.659 4.741 24.533 9.244c6.875 4.504 12.267 10.786 16.178 18.845 3.912 8.059 5.867 18.489 5.867 31.289 0 5.926-.355 11.674-1.067 17.245-.711 5.57-2.014 11.081-3.911 16.533-2.607 7.822-6.281 15.645-11.022 23.467 3.081 7.585 5.393 15.882 6.933 24.889 1.541 9.007 2.311 20.148 2.311 33.422 0 21.571-4.029 40.593-12.088 57.068-8.06 16.474-19.319 30.281-33.779 41.422-14.459 11.141-31.763 19.556-51.911 25.245s-42.43 8.533-66.845 8.533c-7.585 0-15.052-.355-22.4-1.067-7.348-.711-12.8-1.422-16.356-2.133zm25.6-140.801c0-4.03-.77-7.17-2.311-9.422s-3.97-3.378-7.289-3.378c-2.37 0-4.444.77-6.222 2.311s-2.667 4.326-2.667 8.356v36.622c2.134 1.659 4.504 2.489 7.112 2.489 5.214 0 8.414-1.6 9.6-4.8 1.185-3.2 1.777-8.237 1.777-15.111z"/><path d="m2660.1 1894.81c5.926 0 10.371-1.245 13.334-3.734s4.444-5.748 4.444-9.778c0-4.74-1.718-8.059-5.155-9.955s-7.526-2.845-12.267-2.845c-6.637 0-11.911 1.837-15.822 5.512-3.912 3.674-6.341 8.592-7.289 14.755 2.37 1.422 5.452 2.785 9.244 4.089 3.793 1.304 8.297 1.956 13.511 1.956zm4.623 240.713c-32.475 0-61.867-4.682-88.179-14.045-26.311-9.363-48.771-22.874-67.378-40.534-18.608-17.659-32.948-39.17-43.023-64.533-10.074-25.364-15.111-53.927-15.111-85.69 0-33.422 5.393-62.934 16.178-88.534s25.363-47.052 43.734-64.356c18.37-17.304 39.763-30.341 64.178-39.111 24.415-8.771 50.134-13.156 77.156-13.156 28.682 0 54.519 4.207 77.512 12.622s42.608 19.971 58.845 34.667c16.237 14.697 28.741 31.882 37.511 51.556 8.771 19.674 13.156 40.652 13.156 62.934 0 21.096-3.734 39.23-11.2 54.4-7.467 15.171-17.838 27.675-31.112 37.512s-29.037 17.126-47.289 21.867c-18.252 4.74-38.045 7.111-59.378 7.111-16.119 0-31.704-1.897-46.756-5.689-15.052-3.793-27.911-8.889-38.578-15.289-1.185.948-1.956 2.192-2.311 3.733-.356 1.541-.534 2.904-.534 4.089 0 3.556 2.608 7.052 7.823 10.489s11.97 6.519 20.267 9.245c8.296 2.726 17.777 4.977 28.444 6.755s21.334 2.667 32 2.667c14.697 0 28.09-1.008 40.178-3.022 12.089-2.015 22.934-4.504 32.534-7.467s17.956-6.222 25.067-9.778 13.037-6.993 17.778-10.311c3.081 2.607 5.748 6.459 8 11.556 2.252 5.096 4.207 10.726 5.867 16.889 1.659 6.163 2.903 12.503 3.733 19.022.83 6.518 1.244 12.504 1.244 17.956 0 5.451-.296 10.607-.888 15.466-.593 4.86-1.363 9.067-2.312 12.623-7.585 6.4-15.881 12.503-24.889 18.311-9.007 5.807-19.674 10.904-32 15.289s-26.608 7.941-42.845 10.667-35.378 4.089-57.422 4.089z"/></g></svg>